<svg width="1627" height="466" viewBox="0 0 1627 466" fill="none" xmlns="http://www.w3.org/2000/svg">
<rect x="0.502563" y="0.5" width="1625.99" height="465" stroke="#D6D6D6"/>
<line x1="0.00256348" y1="109.5" x2="1627" y2="109.5" stroke="#D6D6D6"/>
<line x1="0.00256348" y1="169.5" x2="1627" y2="169.5" stroke="#D6D6D6"/>
<line x1="0.00256348" y1="229.5" x2="1627" y2="229.5" stroke="#D6D6D6"/>
<line x1="0.00256348" y1="289.5" x2="1627" y2="289.5" stroke="#D6D6D6"/>
<line x1="0.00256348" y1="349.5" x2="1627" y2="349.5" stroke="#D6D6D6"/>
<line x1="0.00256348" y1="409.5" x2="1627" y2="409.5" stroke="#D6D6D6"/>
<line y1="53.5" x2="1627" y2="53.5" stroke="#D6D6D6"/>
<line x1="78.1774" y1="466" x2="78.1774" stroke="#D6D6D6"/>
<line x1="159.999" y1="466" x2="159.999" stroke="#D6D6D6"/>
<line x1="241.821" y1="466" x2="241.821" stroke="#D6D6D6"/>
<line x1="323.643" y1="466" x2="323.643" stroke="#D6D6D6"/>
<line x1="405.465" y1="466" x2="405.465" stroke="#D6D6D6"/>
<line x1="487.286" y1="466" x2="487.286" stroke="#D6D6D6"/>
<line x1="569.108" y1="466" x2="569.108" stroke="#D6D6D6"/>
<line x1="650.93" y1="466" x2="650.93" stroke="#D6D6D6"/>
<line x1="732.752" y1="466" x2="732.752" stroke="#D6D6D6"/>
<line x1="814.573" y1="466" x2="814.573" stroke="#D6D6D6"/>
<line x1="896.395" y1="466" x2="896.395" stroke="#D6D6D6"/>
<line x1="978.217" y1="466" x2="978.217" stroke="#D6D6D6"/>
<line x1="1060.04" y1="466" x2="1060.04" stroke="#D6D6D6"/>
<line x1="1141.86" y1="466" x2="1141.86" stroke="#D6D6D6"/>
<line x1="1223.68" y1="466" x2="1223.68" stroke="#D6D6D6"/>
<line x1="1305.5" y1="466" x2="1305.5" stroke="#D6D6D6"/>
<line x1="1387.33" y1="466" x2="1387.33" stroke="#D6D6D6"/>
<line x1="1469.15" y1="466" x2="1469.15" stroke="#D6D6D6"/>
<line x1="1550.97" y1="466" x2="1550.97" stroke="#D6D6D6"/>
</svg>
